<mxfile host="65bd71144e">
    <diagram id="7cGOJpm6jLCIRAruJq64" name="Domain">
        <mxGraphModel dx="1490" dy="995" grid="1" gridSize="10" guides="1" tooltips="1" connect="1" arrows="1" fold="1" page="1" pageScale="1" pageWidth="850" pageHeight="1100" math="0" shadow="0">
            <root>
                <mxCell id="0"/>
                <mxCell id="1" parent="0"/>
                <mxCell id="3" value="Members" style="ellipse;whiteSpace=wrap;html=1;" vertex="1" parent="1">
                    <mxGeometry x="90" y="140" width="120" height="80" as="geometry"/>
                </mxCell>
                <mxCell id="4" value="Users" style="ellipse;whiteSpace=wrap;html=1;" vertex="1" parent="1">
                    <mxGeometry x="360" y="80" width="120" height="80" as="geometry"/>
                </mxCell>
                <mxCell id="5" value="Photo&lt;br&gt;Competitions" style="ellipse;whiteSpace=wrap;html=1;" vertex="1" parent="1">
                    <mxGeometry x="180" y="450" width="120" height="80" as="geometry"/>
                </mxCell>
                <mxCell id="7" value="Submissions" style="ellipse;whiteSpace=wrap;html=1;" vertex="1" parent="1">
                    <mxGeometry x="620" y="480" width="120" height="80" as="geometry"/>
                </mxCell>
                <mxCell id="9" value="Photos" style="ellipse;whiteSpace=wrap;html=1;" vertex="1" parent="1">
                    <mxGeometry x="660" y="200" width="120" height="80" as="geometry"/>
                </mxCell>
                <mxCell id="11" value="StBilder" style="ellipse;whiteSpace=wrap;html=1;" vertex="1" parent="1">
                    <mxGeometry x="550" y="600" width="120" height="80" as="geometry"/>
                </mxCell>
                <mxCell id="12" value="Månadens bild" style="ellipse;whiteSpace=wrap;html=1;" vertex="1" parent="1">
                    <mxGeometry x="695" y="600" width="120" height="80" as="geometry"/>
                </mxCell>
                <mxCell id="15" value="Vårtävling" style="ellipse;whiteSpace=wrap;html=1;" vertex="1" parent="1">
                    <mxGeometry x="80" y="590" width="120" height="80" as="geometry"/>
                </mxCell>
                <mxCell id="16" value="Hösttävling" style="ellipse;whiteSpace=wrap;html=1;" vertex="1" parent="1">
                    <mxGeometry x="220" y="590" width="120" height="80" as="geometry"/>
                </mxCell>
                <mxCell id="17" value="" style="endArrow=none;html=1;" edge="1" parent="1" source="4" target="9">
                    <mxGeometry width="50" height="50" relative="1" as="geometry">
                        <mxPoint x="570" y="530" as="sourcePoint"/>
                        <mxPoint x="620" y="480" as="targetPoint"/>
                    </mxGeometry>
                </mxCell>
                <mxCell id="18" value="" style="endArrow=none;html=1;" edge="1" parent="1" source="4" target="3">
                    <mxGeometry width="50" height="50" relative="1" as="geometry">
                        <mxPoint x="280" y="290" as="sourcePoint"/>
                        <mxPoint x="330" y="240" as="targetPoint"/>
                    </mxGeometry>
                </mxCell>
                <mxCell id="19" value="" style="endArrow=none;html=1;" edge="1" parent="1" source="7" target="9">
                    <mxGeometry width="50" height="50" relative="1" as="geometry">
                        <mxPoint x="481.47702749128666" y="150.54929726466685" as="sourcePoint"/>
                        <mxPoint x="678.5504244572476" y="229.42016978289894" as="targetPoint"/>
                    </mxGeometry>
                </mxCell>
                <mxCell id="20" value="" style="endArrow=none;html=1;" edge="1" parent="1" source="11" target="7">
                    <mxGeometry width="50" height="50" relative="1" as="geometry">
                        <mxPoint x="491.47702749128666" y="160.54929726466685" as="sourcePoint"/>
                        <mxPoint x="688.5504244572476" y="239.42016978289894" as="targetPoint"/>
                    </mxGeometry>
                </mxCell>
                <mxCell id="21" value="" style="endArrow=none;html=1;" edge="1" parent="1" source="7" target="12">
                    <mxGeometry width="50" height="50" relative="1" as="geometry">
                        <mxPoint x="501.47702749128666" y="170.54929726466685" as="sourcePoint"/>
                        <mxPoint x="698.5504244572476" y="249.42016978289894" as="targetPoint"/>
                    </mxGeometry>
                </mxCell>
                <mxCell id="22" value="" style="endArrow=none;html=1;entryX=0.089;entryY=0.829;entryDx=0;entryDy=0;entryPerimeter=0;" edge="1" parent="1" source="5" target="9">
                    <mxGeometry width="50" height="50" relative="1" as="geometry">
                        <mxPoint x="511.47702749128666" y="180.54929726466685" as="sourcePoint"/>
                        <mxPoint x="710" y="250" as="targetPoint"/>
                    </mxGeometry>
                </mxCell>
                <mxCell id="23" value="" style="endArrow=none;html=1;" edge="1" parent="1" source="15" target="5">
                    <mxGeometry width="50" height="50" relative="1" as="geometry">
                        <mxPoint x="521.4770274912867" y="190.54929726466685" as="sourcePoint"/>
                        <mxPoint x="718.5504244572476" y="269.42016978289894" as="targetPoint"/>
                    </mxGeometry>
                </mxCell>
                <mxCell id="24" value="" style="endArrow=none;html=1;" edge="1" parent="1" source="16" target="5">
                    <mxGeometry width="50" height="50" relative="1" as="geometry">
                        <mxPoint x="531.4770274912867" y="200.54929726466685" as="sourcePoint"/>
                        <mxPoint x="728.5504244572476" y="279.42016978289894" as="targetPoint"/>
                    </mxGeometry>
                </mxCell>
                <mxCell id="26" value="Email notifications" style="ellipse;whiteSpace=wrap;html=1;" vertex="1" parent="1">
                    <mxGeometry x="120" y="780" width="120" height="80" as="geometry"/>
                </mxCell>
                <mxCell id="27" value="Judge&lt;br&gt;Competition" style="ellipse;whiteSpace=wrap;html=1;" vertex="1" parent="1">
                    <mxGeometry x="20" y="480" width="120" height="80" as="geometry"/>
                </mxCell>
                <mxCell id="28" value="" style="endArrow=none;html=1;" edge="1" parent="1" source="5" target="27">
                    <mxGeometry width="50" height="50" relative="1" as="geometry">
                        <mxPoint x="297.35816770869496" y="475.4398339557233" as="sourcePoint"/>
                        <mxPoint x="680.6799999999998" y="276.31999999999994" as="targetPoint"/>
                    </mxGeometry>
                </mxCell>
                <mxCell id="29" value="Member&lt;br&gt;role" style="ellipse;whiteSpace=wrap;html=1;" vertex="1" parent="1">
                    <mxGeometry x="40" y="40" width="120" height="80" as="geometry"/>
                </mxCell>
                <mxCell id="30" value="" style="endArrow=none;html=1;" edge="1" parent="1" source="29" target="3">
                    <mxGeometry width="50" height="50" relative="1" as="geometry">
                        <mxPoint x="373.03901595720413" y="142.5688556338564" as="sourcePoint"/>
                        <mxPoint x="216.92099788303358" y="177.35088935932572" as="targetPoint"/>
                    </mxGeometry>
                </mxCell>
                <mxCell id="31" value="" style="endArrow=none;dashed=1;html=1;" edge="1" parent="1">
                    <mxGeometry width="50" height="50" relative="1" as="geometry">
                        <mxPoint x="10" y="750" as="sourcePoint"/>
                        <mxPoint x="830" y="750" as="targetPoint"/>
                    </mxGeometry>
                </mxCell>
                <mxCell id="32" value="Token management" style="ellipse;whiteSpace=wrap;html=1;" vertex="1" parent="1">
                    <mxGeometry x="280" y="780" width="120" height="80" as="geometry"/>
                </mxCell>
            </root>
        </mxGraphModel>
    </diagram>
</mxfile>